<svg xmlns="http://www.w3.org/2000/svg" width="24" height="24" viewBox="0 0 24 24">
  <g id="Group_51707" data-name="Group 51707" transform="translate(-1154 -6746)">
    <circle id="Ellipse_2520" data-name="Ellipse 2520" cx="12" cy="12" r="12" transform="translate(1154 6746)" fill="#fff"/>
    <g id="noun-download-1030575" transform="translate(1160.947 6761.407) rotate(-90)">
      <path id="Path_70267" data-name="Path 70267" d="M4.672,0A.784.784,0,0,0,3.88.792V11.339L1.346,8.805a.765.765,0,0,0-1.109,0,.765.765,0,0,0,0,1.109L4.1,13.778a.763.763,0,0,0,.57.222.763.763,0,0,0,.57-.222L9.106,9.914A.784.784,0,0,0,8,8.805L5.464,11.339V.792A.784.784,0,0,0,4.672,0Z" transform="translate(-1.237 -1.947)" fill="#1e4b82"/>
    </g>
  </g>
</svg>
